# xmcd
#
# Track frame offsets: 
#        150
#        25217
#        50603
#        65261
#        89569
#        108271
#        131530
#        151008
#        167898
#        186412
#        206909
#
# Disc length: 2981 seconds
#
# Revision: 0
# Processed by: cddbd v1.5.2PL0 Copyright (c) Steve Scherf et al.
# Submitted via: ExactAudioCopy v0.99pb4
#
DISCID=970ba30b
DTITLE=Gary Seiler - He's Finally Living
DYEAR=2005
DGENRE=Country
TTITLE0=He's Finally Living
TTITLE1=Back to Another Time
TTITLE2=Gone Surfin'
TTITLE3=Cozumel
TTITLE4=She Said, "It's all About me"
TTITLE5=Back to their Island
TTITLE6=She Want's him
TTITLE7=I Gotta Get Out Of This Place
TTITLE8=Laid Back And Tan
TTITLE9=I'm Gonna Miss You
TTITLE10=Seemann, Laﬂ das Tr‰umen
EXTD=
EXTT0=
EXTT1=
EXTT2=
EXTT3=
EXTT4=
EXTT5=
EXTT6=
EXTT7=
EXTT8=
EXTT9=
EXTT10=
PLAYORDER=
